
<svg width="10" height="10" viewBox="0 0 10 10" fill="none" xmlns="http://www.w3.org/2000/svg">
<g clip-path="url(#clip0_58_176)">
<path d="M9.05469 0.945531C8.84958 0.740453 8.57141 0.625244 8.28136 0.625244C7.99131 0.625244 7.71314 0.740453 7.50802 0.945531L7.02594 1.42761L8.57261 2.97428L9.05469 2.4922C9.25977 2.28709 9.37498 2.00891 9.37498 1.71886C9.37498 1.42882 9.25977 1.15064 9.05469 0.945531ZM8.13052 3.41637L6.58386 1.8697L3.08386 5.3697C2.82671 5.62671 2.63768 5.94377 2.53386 6.2922L2.20052 7.41095C2.18443 7.46493 2.18323 7.52227 2.19705 7.57688C2.21087 7.63149 2.23919 7.68136 2.27903 7.72119C2.31886 7.76103 2.36873 7.78935 2.42334 7.80317C2.47795 7.81699 2.53529 7.81579 2.58927 7.7997L3.70802 7.46637C4.05645 7.36254 4.37351 7.17351 4.63052 6.91637L8.13052 3.41637Z" fill="black"/>
<path d="M2.1875 2.1875C1.85598 2.1875 1.53804 2.3192 1.30362 2.55362C1.0692 2.78804 0.9375 3.10598 0.9375 3.4375V7.8125C0.9375 8.14402 1.0692 8.46196 1.30362 8.69638C1.53804 8.9308 1.85598 9.0625 2.1875 9.0625H6.5625C6.89402 9.0625 7.21196 8.9308 7.44638 8.69638C7.6808 8.46196 7.8125 8.14402 7.8125 7.8125V5.625C7.8125 5.54212 7.77958 5.46263 7.72097 5.40403C7.66237 5.34542 7.58288 5.3125 7.5 5.3125C7.41712 5.3125 7.33763 5.34542 7.27903 5.40403C7.22042 5.46263 7.1875 5.54212 7.1875 5.625V7.8125C7.1875 7.97826 7.12165 8.13723 7.00444 8.25444C6.88723 8.37165 6.72826 8.4375 6.5625 8.4375H2.1875C2.02174 8.4375 1.86277 8.37165 1.74556 8.25444C1.62835 8.13723 1.5625 7.97826 1.5625 7.8125V3.4375C1.5625 3.27174 1.62835 3.11277 1.74556 2.99556C1.86277 2.87835 2.02174 2.8125 2.1875 2.8125H4.375C4.45788 2.8125 4.53737 2.77958 4.59597 2.72097C4.65458 2.66237 4.6875 2.58288 4.6875 2.5C4.6875 2.41712 4.65458 2.33763 4.59597 2.27903C4.53737 2.22042 4.45788 2.1875 4.375 2.1875H2.1875Z" fill="black"/>
</g>
<defs>
<clipPath id="clip0_58_176">
<rect width="10" height="10" fill="white"/>
</clipPath>
</defs>
</svg>
